#!OML:ASF E:\Steps\Project 1\Capture day 1\Session 2\Subject.ASF
:FULLY-SPECIFIED
:DEGREES
302
root 11.6731 17.3118 17.7743 -152.754 2.91445 182.092
lowerback -20.279 -3.67092 -7.83885
upperback 2.3457 -2.59906 -1.18024
thorax 14.4933 -1.68894 2.28262
lowerneck -0.658572 -1.36224 -0.658855
upperneck 24.4405 -0.588631 4.55146
head 7.61836 0.83801 1.68199
rclavicle -1.51076e-014 5.40694e-014
rhumerus -44.3433 -13.9826 -74.3923
rradius 41.9086
rwrist -4.71677
rhand -5.49516 -53.5041
rfingers 7.12502
rthumb 20.3176 -82.4613
lclavicle -1.51076e-014 5.40694e-014
lhumerus -30.675 3.13963 77.3868
lradius 31.465
lwrist 1.62754
lhand -22.507 -11.4883
lfingers 7.12502
lthumb 3.91917 18.4554
rfemur -44.1281 8.10538 20.5293
rtibia 37.8215
rfoot -21.648 -4.16615
rtoes -34.3081
lfemur -27.5555 -8.37288 -18.092
ltibia 7.60219
lfoot -5.60252 0.634542
ltoes -28.7443
303
root 11.6704 17.3042 17.7578 -152.751 2.708 181.935
lowerback -20.669 -3.79809 -7.84718
upperback 2.19659 -2.72505 -1.16289
thorax 14.5615 -1.73953 2.25502
lowerneck 0.347286 -1.33572 -0.840655
upperneck 24.1708 -0.467289 4.57786
head 7.34747 0.889488 1.7223
rclavicle 2.3059e-014 -4.45278e-014
rhumerus -44.7139 -13.6798 -74.3187
rradius 41.8442
rwrist -4.62809
rhand -5.55114 -52.9935
rfingers 7.12502
rthumb 20.2638 -81.9565
lclavicle 2.3059e-014 -4.45278e-014
lhumerus -31.2223 3.05161 77.3835
lradius 31.7118
lwrist 1.78972
lhand -22.5443 -11.5868
lfingers 7.12502
lthumb 3.88312 18.3576
rfemur -43.1325 8.23057 20.2711
rtibia 36.0543
rfoot -21.1876 -4.32701
rtoes -34.1473
lfemur -27.4289 -8.51236 -18.2616
ltibia 7.39556
lfoot -5.53016 0.47264
ltoes -28.5892
304
root 11.6657 17.3022 17.7379 -152.968 2.13855 181.687
lowerback -20.5121 -3.97443 -7.84541
upperback 2.4861 -2.98062 -1.13118
thorax 14.8455 -1.87589 2.19586
lowerneck -0.764735 -1.28032 -0.951353
upperneck 24.4551 -0.485841 4.68119
head 7.63965 0.870649 1.78234
rclavicle 1.59028e-014 1.27222e-014
rhumerus -43.9137 -13.9115 -74.4079
rradius 41.5106
rwrist -4.14917
rhand -5.80928 -52.4131
rfingers 7.12502
rthumb 20.0157 -81.4022
lclavicle 1.59028e-014 1.27222e-014
lhumerus -30.6144 3.2364 77.3845
lradius 31.7181
lwrist 1.81562
lhand -22.463 -11.5456
lfingers 7.12502
lthumb 3.96164 18.3973
rfemur -41.7674 8.16663 20.009
rtibia 34.1654
rfoot -20.7655 -4.38649
rtoes -33.1223
lfemur -27.1681 -8.63334 -18.5625
ltibia 7.38299
lfoot -5.44836 -0.101876
ltoes -28.9323
305
root 11.6651 17.2979 17.7185 -153.102 1.60252 181.475
lowerback -20.5619 -4.13385 -7.86376
upperback 2.373 -3.18417 -1.11244
thorax 14.7647 -1.96243 2.16084
lowerneck 0.0489211 -1.34177 -1.05109
upperneck 24.2952 -0.508255 4.7493
head 7.44302 0.868158 1.81603
rclavicle -5.56597e-015 -7.95139e-015
rhumerus -44.2638 -13.7514 -74.4105
rradius 41.6224
rwrist -4.23557
rhand -5.36911 -52.6984
rfingers 7.12502
rthumb 20.4387 -81.6427
lclavicle -5.56597e-015 -7.95139e-015
lhumerus -31.0237 3.16253 77.3538
lradius 31.9074
lwrist 1.8322
lhand -22.2467 -11.1399
lfingers 7.12502
lthumb 4.1705 18.799
rfemur -40.5415 8.19655 19.7557
rtibia 32.3145
rfoot -20.1241 -4.42611
rtoes -31.829
lfemur -27.0124 -8.44258 -18.8742
ltibia 7.40626
lfoot -5.29297 -0.961652
ltoes -29.0387
306
root 11.6696 17.2816 17.7055 -152.759 1.61036 181.389
lowerback -21.2861 -4.06175 -7.9114
upperback 2.47043 -3.00775 -1.05434
thorax 15.2988 -1.9029 2.27688
lowerneck -0.347755 -1.45418 -1.2899
upperneck 24.2966 -0.704043 4.8073
head 7.52073 0.747969 1.86411
rclavicle 1.90833e-014 1.27222e-014
rhumerus -43.9885 -13.9971 -74.3158
rradius 41.7227
rwrist -4.35456
rhand -5.00569 -52.7904
rfingers 7.12502
rthumb 20.7879 -81.6968
lclavicle 1.90833e-014 1.27222e-014
lhumerus -30.5752 3.15158 77.5905
lradius 31.9893
lwrist 1.55882
lhand -22.1641 -11.0508
lfingers 7.12502
lthumb 4.25029 18.8865
rfemur -40.1554 8.56905 19.4379
rtibia 30.9163
rfoot -19.4196 -4.46651
rtoes -32.2792
lfemur -27.2931 -8.12461 -19.0253
ltibia 7.29792
lfoot -5.1316 -1.38018
ltoes -29.2015
307
root 11.6697 17.2655 17.6906 -152.478 1.55813 181.315
lowerback -21.85 -4.01001 -7.85435
upperback 2.43446 -2.88442 -1.09086
thorax 15.5703 -1.8403 2.22357
lowerneck -0.298551 -1.56704 -1.2624
upperneck 24.1607 -0.891388 4.88871
head 7.47294 0.66171 1.87133
rclavicle -4.57205e-014 3.18055e-015
rhumerus -44.0233 -14.3488 -74.1567
rradius 41.5963
rwrist -4.02769
rhand -5.25687 -52.0299
rfingers 7.12502
rthumb 20.5466 -80.9626
lclavicle -4.57205e-014 3.18055e-015
lhumerus -30.5113 2.89729 77.6033
lradius 32.1894
lwrist 1.42135
lhand -22.2001 -11.1738
lfingers 7.12502
lthumb 4.21558 18.7642
rfemur -39.647 8.87787 19.1857
rtibia 29.5159
rfoot -18.5048 -4.61346
rtoes -33.1826
lfemur -27.5036 -8.13974 -19.0945
ltibia 7.2076
lfoot -5.10636 -1.51055
ltoes -28.6759
308
root 11.6678 17.2542 17.6706 -152.475 1.21711 181.146
lowerback -22.0474 -4.00108 -7.82345
upperback 2.43549 -2.8549 -1.10912
thorax 15.6824 -1.82377 2.18719
lowerneck -1.34918 -1.53676 -0.375705
upperneck 24.8499 -0.79402 4.28458
head 7.88415 0.76492 1.54251
rclavicle -4.17448e-014 -6.83819e-014
rhumerus -44.1039 -14.493 -74.0125
rradius 41.508
rwrist -4.07445
rhand -5.86975 -51.2586
rfingers 7.12502
rthumb 19.9576 -80.2538
lclavicle -4.17448e-014 -6.83819e-014
lhumerus -30.5142 2.40112 77.7332
lradius 32.4598
lwrist 1.86148
lhand -22.3253 -11.1252
lfingers 7.12502
lthumb 4.09468 18.8152
rfemur -38.5135 8.88825 19.0244
rtibia 27.5981
rfoot -17.2946 -4.58981
rtoes -32.2903
lfemur -27.4108 -8.18124 -19.302
ltibia 7.12809
lfoot -5.05264 -1.92362
ltoes -27.328
309
root 11.6678 17.2412 17.6512 -152.47 0.970371 180.885
lowerback -22.2338 -4.10113 -7.99436
upperback 2.40993 -2.93197 -1.03716
thorax 15.7867 -1.87764 2.33157
lowerneck -1.37941 -1.64468 -0.69107
upperneck 24.9752 -0.926674 4.38816
head 7.93727 0.690167 1.62505
rclavicle 2.38542e-015 7.31528e-014
rhumerus -44.1275 -14.1281 -74.006
rradius 41.6652
rwrist -4.39441
rhand -6.13505 -51.5029
rfingers 7.12502
rthumb 19.7025 -80.5244
lclavicle 2.38542e-015 7.31528e-014
lhumerus -30.3799 2.31872 77.9302
lradius 32.4179
lwrist 2.20396
lhand -22.4937 -11.0633
lfingers 7.12502
lthumb 3.93206 18.8802
rfemur -37.405 8.92127 18.7216
rtibia 25.6399
rfoot -16.7994 -4.34802
rtoes -29.6675
lfemur -27.2575 -8.01676 -19.6943
ltibia 6.93722
lfoot -4.82673 -2.52873
ltoes -26.3207
310
root 11.667 17.2284 17.6313 -152.497 0.773327 180.57
lowerback -22.306 -4.13243 -8.18872
upperback 2.4052 -2.90254 -1.06197
thorax 15.8328 -1.87823 2.42056
lowerneck -1.52354 -1.76594 -0.730362
upperneck 25.0279 -1.09942 4.38345
head 7.98629 0.605552 1.61933
rclavicle -3.57812e-014 2.8625e-014
rhumerus -44.1779 -14.2387 -73.9793
rradius 41.7738
rwrist -4.2815
rhand -5.4356 -52.0238
rfingers 7.12502
rthumb 20.3748 -80.975
lclavicle -3.57812e-014 2.8625e-014
lhumerus -29.9859 2.25228 78.0326
lradius 32.1992
lwrist 2.16206
lhand -22.5058 -10.9997
lfingers 7.12502
lthumb 3.92035 18.9439
rfemur -36.3784 9.03624 18.2744
rtibia 23.8941
rfoot -17.1792 -4.30036
rtoes -26.4552
lfemur -27.0237 -7.86557 -20.164
ltibia 6.67768
lfoot -4.57194 -3.11298
ltoes -25.429
311
root 11.6676 17.2175 17.6079 -152.537 0.538916 180.317
lowerback -22.2571 -4.19286 -8.29608
upperback 2.29912 -2.96276 -1.03107
thorax 15.6909 -1.90805 2.50206
lowerneck -1.67498 -1.73441 -0.735488
upperneck 25.1693 -1.01397 4.24198
head 8.05875 0.641479 1.58256
rclavicle -2.70347e-014 -2.06736e-014
rhumerus -44.3535 -14.1674 -73.8109
rradius 41.7723
rwrist -4.1515
rhand -4.9592 -51.6614
rfingers 7.12502
rthumb 20.8326 -80.563
lclavicle -2.70347e-014 -2.06736e-014
lhumerus -30.1355 2.43234 78.1236
lradius 32.4062
lwrist 2.09091
lhand -22.376 -10.8552
lfingers 7.12502
lthumb 4.04568 19.0862
rfemur -35.368 8.89074 18.0546
rtibia 22.3973
rfoot -17.7889 -4.65985
rtoes -25.7949
lfemur -26.7584 -7.71831 -20.5258
ltibia 6.39536
lfoot -4.32122 -3.64902
ltoes -23.7727
312
root 11.6696 17.2053 17.5833 -152.505 0.338735 180.169
lowerback -22.6767 -4.18064 -8.26494
upperback 2.35252 -2.90807 -1.02369
thorax 15.9967 -1.88845 2.49247
lowerneck -1.80892 -1.74676 -0.771593
upperneck 25.1505 -1.0337 4.21383
head 8.07722 0.623695 1.57751
rclavicle -9.93923e-015 -1.59028e-015
rhumerus -44.3679 -14.3298 -73.6559
rradius 41.8412
rwrist -4.17391
rhand -5.50464 -51.1242
rfingers 7.12502
rthumb 20.3085 -80.0824
lclavicle -9.93923e-015 -1.59028e-015
lhumerus -30.0013 2.31687 78.2298
lradius 32.5565
lwrist 2.29472
lhand -22.2406 -11.0045
lfingers 7.12502
lthumb 4.17644 18.9343
rfemur -34.0609 8.9587 17.9682
rtibia 20.2432
rfoot -17.8832 -5.81737
rtoes -28.6863
lfemur -26.6088 -7.39432 -20.7893
ltibia 6.21019
lfoot -4.09862 -4.29028
ltoes -22.6099
313
root 11.6703 17.1881 17.5596 -152.356 0.242107 180.073
lowerback -23.0696 -3.98572 -8.15667
upperback 2.25945 -2.60942 -1.14166
thorax 16.0663 -1.73144 2.39506
lowerneck -1.53391 -1.96522 -0.736207
upperneck 24.9208 -1.38904 4.46691
head 7.96081 0.478564 1.62661
rclavicle -2.22639e-014 -4.6118e-014
rhumerus -44.7384 -14.9458 -73.4432
rradius 41.9086
rwrist -4.1793
rhand -5.92976 -51.2574
rfingers 7.12502
rthumb 19.8999 -80.2586
lclavicle -2.22639e-014 -4.6118e-014
lhumerus -29.8018 1.77296 78.2215
lradius 32.4876
lwrist 2.09498
lhand -21.9292 -11.0656
lfingers 7.12502
lthumb 4.4771 18.8671
rfemur -33.3811 8.98567 17.8942
rtibia 18.9453
rfoot -18.1691 -6.55965
rtoes -30.694
lfemur -26.6448 -6.74388 -21.1083
ltibia 6.17323
lfoot -3.90162 -5.16909
ltoes -22.0415
314
root 11.6691 17.1716 17.5403 -152.237 0.206149 179.876
lowerback -23.4743 -3.9801 -8.18002
upperback 2.18246 -2.53796 -1.17683
thorax 16.2027 -1.69465 2.38239
lowerneck -1.18714 -2.02351 -0.916868
upperneck 24.7496 -1.4675 4.61312
head 7.84514 0.436167 1.69825
rclavicle -1.23246e-014 3.02153e-014
rhumerus -44.7448 -15.0631 -73.3602
rradius 41.738
rwrist -4.05825
rhand -6.08477 -51.7639
rfingers 7.12502
rthumb 19.7509 -80.7805
lclavicle -1.23246e-014 3.02153e-014
lhumerus -29.7698 1.99363 78.1705
lradius 32.5033
lwrist 1.71978
lhand -21.8544 -10.8839
lfingers 7.12502
lthumb 4.54937 19.0472
rfemur -32.8551 9.09091 17.6178
rtibia 17.9745
rfoot -18.5949 -6.83772
rtoes -30.3288
lfemur -26.6661 -6.18377 -21.5401
ltibia 6.14599
lfoot -3.72799 -5.92957
ltoes -21.1799
315
root 11.6677 17.1633 17.5281 -152.25 0.134452 179.619
lowerback -23.5567 -3.9904 -8.28694
upperback 2.10862 -2.50522 -1.18908
thorax 16.1628 -1.6824 2.44161
lowerneck -1.03263 -2.08839 -1.14006
upperneck 24.685 -1.57077 4.81823
head 7.80194 0.386324 1.79718
rclavicle 1.43125e-014 3.97569e-014
rhumerus -44.7413 -15.0749 -73.2738
rradius 41.5939
rwrist -3.98687
rhand -6.37176 -51.5668
rfingers 7.12502
rthumb 19.475 -80.6115
lclavicle 1.43125e-014 3.97569e-014
lhumerus -29.8877 1.98049 78.3298
lradius 32.655
lwrist 2.35501
lhand -22.3954 -11.224
lfingers 7.12502
lthumb 4.02694 18.7177
rfemur -32.2564 8.97318 17.3761
rtibia 17.0848
rfoot -19.0292 -7.07124
rtoes -29.6289
lfemur -26.5341 -6.06104 -21.8958
ltibia 6.02393
lfoot -3.57176 -6.30763
ltoes -20.56
316
root 11.6669 17.1582 17.5143 -152.293 0.0915069 179.411
lowerback -23.5326 -3.68019 -8.46084
upperback 2.01997 -2.47396 -1.19329
thorax 16.02 -1.84715 2.5065
lowerneck -1.08353 -2.2197 -1.22833
upperneck 24.7753 -1.75622 4.91652
head 7.8494 0.307089 1.83487
rclavicle 5.1684e-015 1.35174e-014
rhumerus -44.835 -15.0749 -73.1619
rradius 41.5896
rwrist -4.18386
rhand -6.45197 -51.0039
rfingers 7.12502
rthumb 19.3978 -80.0564
lclavicle 5.1684e-015 1.35174e-014
lhumerus -30.1084 1.74687 78.549
lradius 32.9326
lwrist 3.06407
lhand -22.7515 -11.5231
lfingers 7.12502
lthumb 3.68305 18.4248
rfemur -31.6361 8.86313 17.2201
rtibia 16.2101
rfoot -19.5009 -7.36956
rtoes -29.234
lfemur -26.3502 -6.00617 -22.1802
ltibia 5.89481
lfoot -3.463 -6.59762
ltoes -20.154
